<svg xmlns="http://www.w3.org/2000/svg" width="76.396" height="85.559" viewBox="0 0 76.396 85.559">
  <path id="Tracé_566" data-name="Tracé 566" d="M964.5,514.379a5.938,5.938,0,0,1-3.189-1.991,5.108,5.108,0,0,1-.819-4.518q1.325-5.129,2.675-10.251a1.719,1.719,0,0,1,1.52-1.453,1.672,1.672,0,0,1,1.714,2.29c-.854,3.341-1.732,6.675-2.6,10.013q-.663,2.564,1.98,2.568c1,0,2.009.005,3.014,0a1.8,1.8,0,0,0,2.1-1.586c1.792-6.888,3.559-13.784,5.362-20.669a7.821,7.821,0,0,1,7.959-5.75c7.59.049,15.181.02,22.771.01a5.052,5.052,0,0,0,5.458-4.364c.147-.651.285-1.3.42-1.958,1.209-5.828,2.4-11.658,3.626-17.483,1.085-5.174-2.724-9.655-7.81-9.16a7.384,7.384,0,0,0-6.488,6.061,2.967,2.967,0,0,0-.024,1.318c.414-.438.809-.9,1.246-1.309a1.715,1.715,0,0,1,2.528-.128,1.692,1.692,0,0,1-.146,2.465c-3.1,3.133-6.194,6.266-9.349,9.338a2.73,2.73,0,0,1-1.736.6c-4.213.05-8.427.025-12.641.028a5.485,5.485,0,0,0-1,.05,2.076,2.076,0,0,0-1.7,2.157,2.112,2.112,0,0,0,1.88,1.924,6.987,6.987,0,0,0,.753.016c5.358,0,10.716-.008,16.074.013a1.742,1.742,0,0,0,1.38-.581c2.3-2.355,4.619-4.686,6.938-7.019a5.013,5.013,0,0,1,.823-.7,1.586,1.586,0,0,1,1.995.242,1.536,1.536,0,0,1,.289,1.918,4.071,4.071,0,0,1-.679.84c-2.547,2.579-5.111,5.14-7.645,7.731a2.9,2.9,0,0,1-2.233.911q-11.679-.027-23.357-.01c-2.376,0-3.509.873-4.125,3.186-.587,2.2-1.158,4.411-1.744,6.614-.341,1.28-1.115,1.86-2.11,1.6-1.053-.275-1.447-1.138-1.1-2.474.553-2.154,1.125-4.3,1.68-6.458,1-3.892,3.42-5.774,7.472-5.813.22,0,.44-.019.715-.032a5.575,5.575,0,0,1,.125-4.257,5.462,5.462,0,0,1,5.333-3.2c3.963-.006,7.926.015,11.888-.025a2.709,2.709,0,0,0,1.3-.519c2.838-1.821,3.159-4.836,3.635-7.764.419-2.576,1.174-5.024,3.138-6.854a41.117,41.117,0,0,1,3.6-2.713,9.127,9.127,0,0,1-2.611-4.688c-.923-4.9.115-9.231,4.347-11.869a9.649,9.649,0,0,1,13.886,4.293c.087.2.193.384.2.4a23.047,23.047,0,0,1,1.914-3.634,7.59,7.59,0,0,1,13.439,5.961c-.658,3.7-1.483,7.361-2.243,11.038q-1.333,6.455-2.678,12.908a1.756,1.756,0,0,1-1.444,1.624,1.675,1.675,0,0,1-1.864-2.18c.262-1.366.562-2.724.844-4.086q2.01-9.681,4.018-19.362a4.313,4.313,0,1,0-8.423-1.8q-2.268,10.821-4.506,21.647c-1.52,7.326-3.024,14.654-4.555,21.978-.9,4.3-4.209,6.919-8.774,6.929q-11.344.025-22.688,0a4.74,4.74,0,0,0-3.6,1.254,4.048,4.048,0,0,0-1.038,4.455,4.286,4.286,0,0,0,3.775,2.878,8.042,8.042,0,0,0,1,.029q16.367,0,32.734,0c2.945,0,4.4-1.186,5.006-4.07q1.733-8.29,3.464-16.58c.023-.109.028-.222.058-.329a1.72,1.72,0,0,1,1.977-1.392,1.7,1.7,0,0,1,1.293,2.106c-.327,1.693-.7,3.377-1.052,5.065-.809,3.894-1.635,7.785-2.419,11.684-.9,4.461-3.778,6.857-8.317,6.859-2.535,0-5.07,0-7.709,0,.138.366.234.649.349.924q2.554,6.122,5.11,12.242c.615,1.475.453,2.018-.826,2.871H987.274c-1.262-.812-1.448-1.389-.871-2.779q2.559-6.157,5.126-12.312c.115-.276.221-.556.375-.947h-7.852a8.131,8.131,0,0,1-4.516-1.278c-.548-.355-1.039-.8-1.585-1.22-.081.255-.148.438-.2.625q-1.776,6.814-3.544,13.63a4.875,4.875,0,0,1-1.641,2.924,19.743,19.743,0,0,1-2.541,1.355Zm46.45-3.383a.656.656,0,0,0,0-.2c-1.664-4.005-3.322-8.013-5.022-12a1.066,1.066,0,0,0-.825-.434c-2.957-.031-5.914,0-8.871-.032a.878.878,0,0,0-.961.667c-1.564,3.806-3.161,7.6-4.744,11.4-.079.191-.125.4-.189.605Zm-5.109-71.353c.019.417.015.836.061,1.25a6.311,6.311,0,0,0,11.98,2.167,8.837,8.837,0,0,0,.56-4.984,6.315,6.315,0,0,0-8.984-4.877A6.465,6.465,0,0,0,1005.843,439.643Zm10.468,9.508,1.87,1.969.767-3.761Z" transform="translate(-960.293 -428.819)" fill="#d89648"/>
</svg>
